<svg xmlns="http://www.w3.org/2000/svg" xmlns:xlink="http://www.w3.org/1999/xlink" width="150" zoomAndPan="magnify" viewBox="0 0 112.5 67.499998" height="90" preserveAspectRatio="xMidYMid meet" version="1.0"><defs><g/><clipPath id="aea3401c12"><path d="M 0.164062 12 L 111.839844 12 L 111.839844 49 L 0.164062 49 Z M 0.164062 12 " clip-rule="nonzero"/></clipPath></defs><g clip-path="url(#aea3401c12)"><path stroke-linecap="butt" transform="matrix(0.405674, 0, 0, 0.405674, -0.710813, 20.060649)" fill="none" stroke-linejoin="miter" d="M 30.225232 48.997088 L 30.225232 48.611926 C 27.009134 48.130475 26.527683 44.538845 26.527683 38.01036 C 26.527683 27.014003 26.489167 34.640198 26.489167 25.001535 C 26.489167 23.759389 26.489167 22.796486 26.489167 22.074308 L 44.813218 22.074308 C 44.813218 22.796486 44.813218 23.759389 44.813218 25.001535 C 44.813218 34.640198 44.765073 27.014003 44.765073 38.01036 C 44.765073 44.538845 44.283621 48.130475 41.077153 48.611926 L 41.077153 48.997088 L 54.317075 48.997088 L 54.317075 48.611926 C 51.100978 48.130475 50.629155 44.538845 50.629155 38.01036 C 50.629155 29.324971 50.629155 20.678098 50.629155 11.99271 C 50.629155 5.464225 51.100978 1.862966 54.317075 1.391143 L 54.317075 0.996353 L 41.077153 0.996353 L 41.077153 1.391143 C 44.283621 1.862966 44.765073 5.464225 44.765073 11.99271 C 44.765073 20.437373 44.813218 17.895308 44.813218 20.629953 L 26.489167 20.629953 C 26.489167 17.895308 26.527683 20.437373 26.527683 11.99271 C 26.527683 5.464225 27.009134 1.862966 30.225232 1.391143 L 30.225232 0.996353 L 16.975681 0.996353 L 16.975681 1.391143 C 20.191778 1.862966 20.67323 5.464225 20.67323 11.99271 C 20.67323 20.678098 20.67323 29.324971 20.67323 38.01036 C 20.67323 44.538845 20.191778 48.130475 16.975681 48.611926 L 16.975681 48.997088 Z M 56.242882 41.274602 C 56.242882 46.406877 59.555269 49.959991 64.215722 49.959991 C 69.299852 49.959991 72.660385 47.995668 75.828337 44.577361 C 76.011289 47.167571 77.455644 48.997088 79.997709 48.997088 L 84.850742 48.997088 L 84.850742 48.611926 C 81.625015 48.130475 81.143564 44.538845 81.143564 38.01036 C 81.143564 35.42015 81.143564 31.770746 81.143564 28.64131 C 81.143564 21.207695 76.059434 18.039743 68.529529 18.039743 C 63.445399 18.039743 57.831672 20.052211 57.831672 23.075728 C 57.831672 24.375648 58.698285 25.434841 60.229302 25.434841 C 64.745319 25.434841 62.386205 19.233743 68.288803 19.233743 C 72.602611 19.233743 75.780192 21.785437 75.780192 26.676987 L 75.780192 26.917713 C 68.288803 27.014003 56.242882 31.53002 56.242882 41.274602 Z M 61.615883 40.648715 C 61.615883 34.12023 67.287384 28.313922 75.780192 28.121342 L 75.780192 42.661183 C 73.517369 45.453603 70.744207 47.600878 66.757787 47.600878 C 62.915802 47.600878 61.615883 43.479651 61.615883 40.648715 Z M 98.090664 48.997088 L 98.090664 48.611926 C 94.884195 48.130475 94.402744 44.538845 94.402744 38.01036 C 94.402744 36.854876 94.402744 31.963326 94.354598 27.399164 C 94.787905 22.940921 99.303922 21.015115 102.231148 21.015115 C 105.687971 21.015115 108.557424 23.027583 110.338795 27.062148 L 110.723956 27.062148 L 110.723956 20.485518 C 109.857343 19.137453 107.363423 18.039743 104.667294 18.039743 C 99.737228 18.039743 96.078196 21.015115 94.354598 24.086777 C 94.354598 21.641002 94.354598 19.66705 94.354598 19.002647 L 85.380339 19.002647 L 85.380339 19.387808 C 88.586807 19.86926 89.068259 23.460889 89.068259 29.989374 C 89.068259 31.712971 89.020114 35.901601 89.020114 38.01036 C 89.020114 44.538845 88.548291 48.130475 85.332194 48.611926 L 85.332194 48.997088 Z M 111.205408 48.611926 L 111.205408 48.997088 L 122.529152 48.997088 L 122.529152 48.611926 C 119.313055 48.130475 120.275958 44.538845 120.275958 38.01036 L 120.227813 23.85568 C 122.586926 21.544712 125.985975 20.254421 128.52804 20.254421 C 133.669944 20.254421 133.81438 26.099245 133.81438 29.989374 C 133.81438 32.675875 133.852896 35.323859 133.852896 38.01036 C 133.852896 44.538845 133.381073 48.130475 130.164976 48.611926 L 130.164976 48.997088 L 142.923446 48.997088 L 142.923446 48.611926 C 139.716978 48.130475 139.235526 44.538845 139.235526 38.01036 C 139.235526 35.034988 139.187381 32.300343 139.187381 29.324971 C 139.187381 27.158438 138.985171 25.386696 138.619268 23.942341 C 140.959123 21.592857 144.367801 20.254421 146.958011 20.254421 C 152.042141 20.254421 152.244351 26.099245 152.244351 29.989374 C 152.244351 32.675875 152.292496 35.323859 152.292496 38.01036 C 152.292496 44.538845 151.811045 48.130475 148.594947 48.611926 L 148.594947 48.997088 L 161.363046 48.997088 L 161.363046 48.611926 C 158.146949 48.130475 157.665497 44.538845 157.665497 38.01036 C 157.665497 35.034988 157.626981 32.300343 157.626981 29.324971 C 157.626981 20.350711 153.534642 18.039743 148.354221 18.039743 C 144.367801 18.039743 140.862833 19.86926 138.185961 22.642421 C 136.741606 19.089308 133.852896 18.039743 129.92425 18.039743 C 126.178556 18.039743 122.866168 19.66705 120.227813 22.112825 L 120.227813 19.002647 L 111.253553 19.002647 L 111.253553 19.387808 C 114.460021 19.86926 114.989618 23.460889 114.941473 29.989374 L 114.893328 38.01036 C 114.845183 44.538845 114.411876 48.130475 111.205408 48.611926 Z M 163.288853 33.975794 C 163.288853 43.575941 169.181822 49.959991 176.730985 49.959991 C 184.260889 49.959991 190.105713 43.575941 190.105713 33.975794 C 190.105713 24.423793 184.260889 18.039743 176.730985 18.039743 C 169.181822 18.039743 163.288853 24.423793 163.288853 33.975794 Z M 174.371871 19.618905 C 185.166018 19.618905 189.826471 48.380829 179.07084 48.380829 C 168.228548 48.380829 163.568095 19.618905 174.371871 19.618905 Z M 192.041149 48.611926 L 192.041149 48.997088 L 203.355264 48.997088 L 203.355264 48.611926 C 200.148795 48.130475 201.111699 44.538845 201.111699 38.01036 L 201.063554 23.85568 C 203.413038 21.544712 206.812087 20.254421 209.354152 20.254421 C 214.505685 20.254421 214.640492 26.099245 214.640492 29.989374 C 214.640492 32.675875 214.688637 35.323859 214.688637 38.01036 C 214.688637 44.538845 214.207185 48.130475 211.000717 48.611926 L 211.000717 48.997088 L 223.759187 48.997088 L 223.759187 48.611926 C 220.552719 48.130475 220.071267 44.538845 220.071267 38.01036 C 220.071267 35.034988 220.023122 32.300343 220.023122 29.324971 C 220.023122 20.350711 215.940411 18.039743 210.750362 18.039743 C 207.014297 18.039743 203.69228 19.66705 201.063554 22.112825 L 201.063554 19.002647 L 192.079665 19.002647 L 192.079665 19.387808 C 195.295762 19.86926 195.825359 23.460889 195.777214 29.989374 L 195.729069 38.01036 C 195.680924 44.538845 195.247617 48.130475 192.041149 48.611926 Z M 237.008738 48.997088 L 237.008738 48.611926 C 233.79264 48.130475 233.311189 44.538845 233.311189 38.01036 L 233.311189 18.039743 L 232.926027 18.039743 C 232.011269 19.185598 229.334398 21.496566 224.577655 21.496566 L 224.577655 21.881728 C 227.793752 22.363179 227.938188 24.905244 227.938188 29.989374 L 227.938188 38.01036 C 227.938188 44.538845 227.456736 48.130475 224.240639 48.611926 L 224.240639 48.997088 Z M 230.720978 7.293741 C 228.660365 7.293741 226.975284 8.969193 226.975284 10.981661 C 226.975284 13.042274 228.660365 14.727355 230.720978 14.727355 C 232.743076 14.727355 234.418528 13.042274 234.418528 10.981661 C 234.418528 8.969193 232.743076 7.293741 230.720978 7.293741 Z M 236.055463 48.611926 L 236.055463 48.997088 L 244.500126 48.997088 L 244.500126 48.611926 C 240.17669 47.995668 243.248352 43.816667 249.102804 35.603101 C 255.015031 43.816667 258.086693 47.995668 253.763257 48.611926 L 253.763257 48.997088 L 265.279582 48.997088 L 265.279582 48.611926 C 262.20792 47.754942 261.399081 45.309168 253.387725 34.02394 C 253.23366 33.831359 253.13737 33.638778 252.992934 33.494343 C 260.532468 22.507615 262.111629 20.302566 265.279582 19.387808 L 265.279582 19.002647 L 256.82529 19.002647 L 256.82529 19.387808 C 261.148726 20.004066 258.086693 24.183067 252.174466 32.396633 C 246.320014 24.183067 243.248352 20.004066 247.571788 19.387808 L 247.571788 19.002647 L 236.055463 19.002647 L 236.055463 19.387808 C 239.117496 20.254421 239.945593 22.690567 247.956949 33.975794 C 248.101385 34.168375 248.188046 34.360956 248.332482 34.505391 C 240.792948 45.492119 239.213787 47.697168 236.055463 48.611926 Z M 236.055463 48.611926 " stroke="#222f40" stroke-width="3.6" stroke-opacity="1" stroke-miterlimit="4"/></g><g fill="#2e4056" fill-opacity="1"><g transform="translate(5.203155, 39.938681)"><g><path d="M 6.347656 0 L 6.347656 -0.15625 C 5.042969 -0.351562 4.847656 -1.8125 4.847656 -4.460938 C 4.847656 -8.917969 4.828125 -5.820312 4.828125 -9.734375 C 4.828125 -10.242188 4.828125 -10.632812 4.828125 -10.925781 L 12.269531 -10.925781 C 12.269531 -10.632812 12.269531 -10.242188 12.269531 -9.734375 C 12.269531 -5.820312 12.25 -8.917969 12.25 -4.460938 C 12.25 -1.8125 12.054688 -0.351562 10.75 -0.15625 L 10.75 0 L 16.125 0 L 16.125 -0.15625 C 14.820312 -0.351562 14.625 -1.8125 14.625 -4.460938 C 14.625 -7.984375 14.625 -11.488281 14.625 -15.011719 C 14.625 -17.660156 14.820312 -19.121094 16.125 -19.316406 L 16.125 -19.472656 L 10.75 -19.472656 L 10.75 -19.316406 C 12.054688 -19.121094 12.25 -17.660156 12.25 -15.011719 C 12.25 -11.585938 12.269531 -12.617188 12.269531 -11.507812 L 4.828125 -11.507812 C 4.828125 -12.617188 4.847656 -11.585938 4.847656 -15.011719 C 4.847656 -17.660156 5.042969 -19.121094 6.347656 -19.316406 L 6.347656 -19.472656 L 0.972656 -19.472656 L 0.972656 -19.316406 C 2.277344 -19.121094 2.472656 -17.660156 2.472656 -15.011719 C 2.472656 -11.488281 2.472656 -7.984375 2.472656 -4.460938 C 2.472656 -1.8125 2.277344 -0.351562 0.972656 -0.15625 L 0.972656 0 Z M 6.347656 0 "/></g></g></g><g fill="#2e4056" fill-opacity="1"><g transform="translate(20.547409, 39.938681)"><g><path d="M 1.558594 -3.136719 C 1.558594 -1.050781 2.902344 0.390625 4.789062 0.390625 C 6.855469 0.390625 8.21875 -0.410156 9.503906 -1.792969 C 9.582031 -0.738281 10.164062 0 11.195312 0 L 13.164062 0 L 13.164062 -0.15625 C 11.859375 -0.351562 11.664062 -1.8125 11.664062 -4.460938 C 11.664062 -5.511719 11.664062 -6.992188 11.664062 -8.257812 C 11.664062 -11.273438 9.601562 -12.558594 6.542969 -12.558594 C 4.480469 -12.558594 2.199219 -11.742188 2.199219 -10.515625 C 2.199219 -9.988281 2.550781 -9.5625 3.175781 -9.5625 C 5.003906 -9.5625 4.050781 -12.074219 6.445312 -12.074219 C 8.199219 -12.074219 9.484375 -11.039062 9.484375 -9.054688 L 9.484375 -8.957031 C 6.445312 -8.917969 1.558594 -7.089844 1.558594 -3.136719 Z M 3.738281 -3.386719 C 3.738281 -6.035156 6.035156 -8.394531 9.484375 -8.46875 L 9.484375 -2.570312 C 8.566406 -1.441406 7.4375 -0.566406 5.820312 -0.566406 C 4.265625 -0.566406 3.738281 -2.238281 3.738281 -3.386719 Z M 3.738281 -3.386719 "/></g></g></g><g fill="#2e4056" fill-opacity="1"><g transform="translate(32.931857, 39.938681)"><g><path d="M 6.152344 0 L 6.152344 -0.15625 C 4.847656 -0.351562 4.652344 -1.8125 4.652344 -4.460938 C 4.652344 -4.925781 4.652344 -6.914062 4.632812 -8.761719 C 4.808594 -10.574219 6.640625 -11.351562 7.828125 -11.351562 C 9.230469 -11.351562 10.398438 -10.535156 11.117188 -8.898438 L 11.273438 -8.898438 L 11.273438 -11.566406 C 10.925781 -12.113281 9.910156 -12.558594 8.820312 -12.558594 C 6.816406 -12.558594 5.335938 -11.351562 4.632812 -10.105469 C 4.632812 -11.097656 4.632812 -11.898438 4.632812 -12.171875 L 0.992188 -12.171875 L 0.992188 -12.015625 C 2.296875 -11.820312 2.492188 -10.359375 2.492188 -7.710938 C 2.492188 -7.011719 2.472656 -5.316406 2.472656 -4.460938 C 2.472656 -1.8125 2.277344 -0.351562 0.972656 -0.15625 L 0.972656 0 Z M 6.152344 0 "/></g></g></g><g fill="#2e4056" fill-opacity="1"><g transform="translate(43.427484, 39.938681)"><g><path d="M 0.972656 -0.15625 L 0.972656 0 L 5.570312 0 L 5.570312 -0.15625 C 4.265625 -0.351562 4.652344 -1.8125 4.652344 -4.460938 L 4.632812 -10.203125 C 5.589844 -11.136719 6.972656 -11.664062 8.003906 -11.664062 C 10.085938 -11.664062 10.144531 -9.289062 10.144531 -7.710938 C 10.144531 -6.621094 10.164062 -5.550781 10.164062 -4.460938 C 10.164062 -1.8125 9.96875 -0.351562 8.664062 -0.15625 L 8.664062 0 L 13.84375 0 L 13.84375 -0.15625 C 12.539062 -0.351562 12.34375 -1.8125 12.34375 -4.460938 C 12.34375 -5.667969 12.324219 -6.777344 12.324219 -7.984375 C 12.324219 -8.859375 12.25 -9.582031 12.09375 -10.164062 C 13.046875 -11.117188 14.429688 -11.664062 15.480469 -11.664062 C 17.542969 -11.664062 17.621094 -9.289062 17.621094 -7.710938 C 17.621094 -6.621094 17.640625 -5.550781 17.640625 -4.460938 C 17.640625 -1.8125 17.445312 -0.351562 16.144531 -0.15625 L 16.144531 0 L 21.320312 0 L 21.320312 -0.15625 C 20.019531 -0.351562 19.824219 -1.8125 19.824219 -4.460938 C 19.824219 -5.667969 19.804688 -6.777344 19.804688 -7.984375 C 19.804688 -11.625 18.148438 -12.558594 16.046875 -12.558594 C 14.429688 -12.558594 13.007812 -11.820312 11.917969 -10.691406 C 11.332031 -12.132812 10.164062 -12.558594 8.566406 -12.558594 C 7.050781 -12.558594 5.707031 -11.898438 4.632812 -10.90625 L 4.632812 -12.171875 L 0.992188 -12.171875 L 0.992188 -12.015625 C 2.296875 -11.820312 2.511719 -10.359375 2.492188 -7.710938 L 2.472656 -4.460938 C 2.453125 -1.8125 2.277344 -0.351562 0.972656 -0.15625 Z M 0.972656 -0.15625 "/></g></g></g><g fill="#2e4056" fill-opacity="1"><g transform="translate(63.970868, 39.938681)"><g><path d="M 1.558594 -6.09375 C 1.558594 -2.199219 3.953125 0.390625 7.011719 0.390625 C 10.066406 0.390625 12.441406 -2.199219 12.441406 -6.09375 C 12.441406 -9.96875 10.066406 -12.558594 7.011719 -12.558594 C 3.953125 -12.558594 1.558594 -9.96875 1.558594 -6.09375 Z M 6.054688 -11.917969 C 10.4375 -11.917969 12.324219 -0.253906 7.964844 -0.253906 C 3.5625 -0.253906 1.675781 -11.917969 6.054688 -11.917969 Z M 6.054688 -11.917969 "/></g></g></g><g fill="#2e4056" fill-opacity="1"><g transform="translate(76.219006, 39.938681)"><g><path d="M 0.972656 -0.15625 L 0.972656 0 L 5.570312 0 L 5.570312 -0.15625 C 4.265625 -0.351562 4.652344 -1.8125 4.652344 -4.460938 L 4.632812 -10.203125 C 5.589844 -11.136719 6.972656 -11.664062 8.003906 -11.664062 C 10.085938 -11.664062 10.144531 -9.289062 10.144531 -7.710938 C 10.144531 -6.621094 10.164062 -5.550781 10.164062 -4.460938 C 10.164062 -1.8125 9.96875 -0.351562 8.664062 -0.15625 L 8.664062 0 L 13.84375 0 L 13.84375 -0.15625 C 12.539062 -0.351562 12.34375 -1.8125 12.34375 -4.460938 C 12.34375 -5.667969 12.324219 -6.777344 12.324219 -7.984375 C 12.324219 -11.625 10.671875 -12.558594 8.566406 -12.558594 C 7.050781 -12.558594 5.707031 -11.898438 4.632812 -10.90625 L 4.632812 -12.171875 L 0.992188 -12.171875 L 0.992188 -12.015625 C 2.296875 -11.820312 2.511719 -10.359375 2.492188 -7.710938 L 2.472656 -4.460938 C 2.453125 -1.8125 2.277344 -0.351562 0.972656 -0.15625 Z M 0.972656 -0.15625 "/></g></g></g><g fill="#2e4056" fill-opacity="1"><g transform="translate(89.284987, 39.938681)"><g><path d="M 6.152344 0 L 6.152344 -0.15625 C 4.847656 -0.351562 4.652344 -1.8125 4.652344 -4.460938 L 4.652344 -12.558594 L 4.5 -12.558594 C 4.128906 -12.09375 3.039062 -11.15625 1.109375 -11.15625 L 1.109375 -11 C 2.414062 -10.808594 2.472656 -9.773438 2.472656 -7.710938 L 2.472656 -4.460938 C 2.472656 -1.8125 2.277344 -0.351562 0.972656 -0.15625 L 0.972656 0 Z M 3.601562 -16.921875 C 2.765625 -16.921875 2.082031 -16.238281 2.082031 -15.421875 C 2.082031 -14.585938 2.765625 -13.902344 3.601562 -13.902344 C 4.421875 -13.902344 5.101562 -14.585938 5.101562 -15.421875 C 5.101562 -16.238281 4.421875 -16.921875 3.601562 -16.921875 Z M 3.601562 -16.921875 "/></g></g></g><g fill="#2e4056" fill-opacity="1"><g transform="translate(94.659377, 39.938681)"><g><path d="M 0.390625 -0.15625 L 0.390625 0 L 3.816406 0 L 3.816406 -0.15625 C 2.0625 -0.410156 3.308594 -2.101562 5.6875 -5.433594 C 8.082031 -2.101562 9.328125 -0.410156 7.574219 -0.15625 L 7.574219 0 L 12.25 0 L 12.25 -0.15625 C 11 -0.507812 10.671875 -1.5 7.417969 -6.074219 C 7.359375 -6.152344 7.320312 -6.230469 7.261719 -6.289062 C 10.320312 -10.75 10.964844 -11.644531 12.25 -12.015625 L 12.25 -12.171875 L 8.820312 -12.171875 L 8.820312 -12.015625 C 10.574219 -11.761719 9.328125 -10.066406 6.933594 -6.738281 C 4.554688 -10.066406 3.308594 -11.761719 5.0625 -12.015625 L 5.0625 -12.171875 L 0.390625 -12.171875 L 0.390625 -12.015625 C 1.636719 -11.664062 1.964844 -10.671875 5.21875 -6.09375 C 5.277344 -6.015625 5.316406 -5.9375 5.375 -5.878906 C 2.316406 -1.421875 1.675781 -0.527344 0.390625 -0.15625 Z M 0.390625 -0.15625 "/></g></g></g></svg>